<svg version="1.1" xmlns="http://www.w3.org/2000/svg" xmlns:xlink="http://www.w3.org/1999/xlink" width="81.27675" height="38.39184" viewBox="0,0,81.27675,38.39184"><g transform="translate(-168.28144,-292.90883)"><g data-paper-data="{&quot;isPaintingLayer&quot;:true}" fill-rule="nonzero" stroke="none" stroke-linecap="butt" stroke-linejoin="miter" stroke-miterlimit="10" stroke-dasharray="" stroke-dashoffset="0" style="mix-blend-mode: normal"><path d="M179.78145,306.8046c0,3.31371 -2.57436,6 -5.75,6c-3.17564,0 -5.75,-2.68629 -5.75,-6c0,-3.31371 2.57436,-6 5.75,-6c3.17564,0 5.75,2.68629 5.75,6z" fill="#ff0000" stroke-width="0"/><path d="M173.96847,324.8046v-24h70.33973v24z" fill="#ff0000" stroke-width="0"/><path d="M249.5582,306.8046c0,3.31371 -2.57436,6 -5.75,6c-3.17564,0 -5.75,-2.68629 -5.75,-6c0,-3.31371 2.57436,-6 5.75,-6c3.17564,0 5.75,2.68629 5.75,6z" fill="#ff0000" stroke-width="0"/><path d="M179.78145,318.8046c0,3.31371 -2.57436,6 -5.75,6c-3.17564,0 -5.75,-2.68629 -5.75,-6c0,-3.31371 2.57436,-6 5.75,-6c3.17564,0 5.75,2.68629 5.75,6z" fill="#ff0000" stroke-width="0"/><path d="M249.46296,318.8046c0,3.31371 -2.57436,6 -5.75,6c-3.17564,0 -5.75,-2.68629 -5.75,-6c0,-3.31371 2.57436,-6 5.75,-6c3.17564,0 5.75,2.68629 5.75,6z" fill="#ff0000" stroke-width="0"/><path d="M168.28145,319.3046v-12h81.27675v12z" fill="#ff0000" stroke-width="0"/><text transform="translate(191.51573,319.5) scale(0.5,0.5)" font-size="40" xml:space="preserve" fill="#ffffff" fill-rule="nonzero" stroke="none" stroke-width="1" stroke-linecap="butt" stroke-linejoin="miter" stroke-miterlimit="10" stroke-dasharray="" stroke-dashoffset="0" font-family="&quot;ヒラギノ角ゴ Pro W3&quot;, &quot;Hiragino Kaku Gothic Pro&quot;, Osaka, &quot;メイリオ&quot;, Meiryo, &quot;ＭＳ Ｐゴシック&quot;, &quot;MS PGothic&quot;" font-weight="normal" text-anchor="start" style="mix-blend-mode: normal"><tspan x="0" dy="0">Delete</tspan></text><text transform="translate(172.85733,320.50297) scale(0.79983,0.79983)" font-size="40" xml:space="preserve" fill="#ffffff" fill-rule="nonzero" stroke="none" stroke-width="1" stroke-linecap="butt" stroke-linejoin="miter" stroke-miterlimit="10" stroke-dasharray="" stroke-dashoffset="0" font-family="&quot;ヒラギノ角ゴ Pro W3&quot;, &quot;Hiragino Kaku Gothic Pro&quot;, Osaka, &quot;メイリオ&quot;, Meiryo, &quot;ＭＳ Ｐゴシック&quot;, &quot;MS PGothic&quot;" font-weight="normal" text-anchor="start" style="mix-blend-mode: normal"><tspan x="0" dy="0">x</tspan></text></g></g></svg>