<svg version="1.1" xmlns="http://www.w3.org/2000/svg" xmlns:xlink="http://www.w3.org/1999/xlink" width="913.77674" height="512.85246" viewBox="0,0,913.77674,512.85246"><g transform="translate(137.79442,77.14899)"><g data-paper-data="{&quot;isPaintingLayer&quot;:true}" fill="none" fill-rule="nonzero" stroke="#fae6ff" stroke-width="0.5" stroke-linecap="round" stroke-linejoin="miter" stroke-miterlimit="10" stroke-dasharray="" stroke-dashoffset="0" style="mix-blend-mode: normal"><path d="M318.00002,242.30001h-64l-30.27628,2.15325v-31l-35,-1l-1,-33.00001l130.19925,0.29054l35.66667,1"/><path d="M420.25635,211.7438l-67.66667,0.33333l0.33333,-63"/><path d="M383.92301,115.74379l1.33333,33.33333h-31.33333"/><path d="M383.58967,148.41046l67.66667,0.33333l-0.66667,33.33333l-65,0.66667"/><path d="M418.25634,211.74379l-0.33333,-29"/><path d="M384.25634,246.07714l1,-35"/><path d="M615.72375,434.45327l-102,-1v-34h-63l-0.72373,-29.15325l30,-1v-64l34.25631,0.11046v-29.33333l32.66667,-0.66667l1,-32l-33.66667,-0.66667"/><path d="M253.00002,276.30001l70,-2l-1,33h64l-2,-30h33l2,62h30"/><path d="M325.00002,339.30003l-36,1l-1,-31h32"/><path d="M481.92299,212.41049l1.33333,63.66667l-35.33333,0.66667l2.07702,96.5562l-97,-1l-1,-31l34,-1l1,-33"/><path d="M539.72372,341.45327l76,-1v29l-67.72372,1.84675l-68,-1"/><path d="M771.72375,276.30001l2,-129h-66v-92l36,-1v59l31,2"/><path d="M648.72375,-42.89899l-69,1l1,-31l97,2l2,29l28,-1l68,0.199v67l-1,61l-33,-1"/><path d="M447.72375,185.30001l36,-2v-64l-36,2l3,-67h99l-1,27l67,3l-1,37"/><path d="M415.72375,83.30001l3,33h-34"/><path d="M485.72375,53.30001l-3,31l33,-1v62l-3,64"/><path d="M543.72372,185.30001l-1,-70l37,3v34l63,-4v-65l61,2"/><path d="M643.72375,117.30001h33l-3,65"/><path d="M610.72372,179.30001l1,63l33,1l1,33l-33,-2l1,32"/><path d="M641.72372,213.30001h34v62l-28,1"/><path d="M511.72375,180.30001l35,-1l-3,34l37,-5l-3,-27h65l100,-1l-1,31l-69,1"/><path d="M737.72375,209.30001l30,-1"/><path d="M674.72374,25.30001l31,-1v33l-91,-4l-2,33"/><path d="M579.72372,57.30001v-38l36,-2v34"/><path d="M614.72372,19.3l32,3l-2,-33h67l31,1l-1,31h27"/><path d="M671.72375,-74.89899l101,3"/><path d="M514.72372,53.10101l-3,-68l103,3l-1,-30"/><path d="M547.72372,26.10101v-39"/><path d="M577.72372,-71.89899l-98,-1l5,94l-100,-1l2,-62h63l-1,-33"/><path d="M509.72375,-14.89899l2,-28h40"/><path d="M414.72375,-10.89899l35,-2l-1,34"/><path d="M451.72375,59.10101l-70,-3l3,-37"/><path d="M515.58967,245.41049l-0.33333,-34.66667l-64.66667,1.66667l1.33333,31.66667l-67.33333,-0.66667l2,33l-34.66667,0.33333l-1,-33l-31.58408,-0.25315l-1.5015,-160.66066l68.88633,0.27102l1,-29"/><path d="M357.72375,117.10101l-37,-4"/><path d="M319.72373,82.10101h-34l-1,-60l35,2v-67h36l-3,-28"/><path d="M353.72375,-11.89899v33l-37,5"/><path d="M507.72373,341.45327h40l-3,-33l39,2"/><path d="M769.72375,303.45327l-27,3l1,35h-63l-1,28l-60,2"/><path d="M643.72375,341.45327h35"/><path d="M548.92301,244.07714l32.66667,-0.66667l-0.86593,64.88954l130,-2v-62l32,-1l-1,32l31,1l3,94l-34,-1.84675l1,63l-34,2l2,-68h-35"/><path d="M772.72375,403.45327l-1,29l-29,1"/><path d="M682.72375,432.45327l-68,1l1,-31h92"/><path d="M547.72372,433.45327l-3,-29l38,-1"/><path d="M487.72375,431.45327h-70l-3,-31l38,1"/><path d="M416.72375,430.45327l-131,2l-1,-34l34,2l-2,-28l34,-3l2,31l39,-2"/><path d="M285.72373,397.45327l-29,3l-0.72373,-61.15325l-2,-95l-1,-32h67"/><path d="M287.72373,340.45327l1,32l-32,-1"/><path d="M284.72373,433.45327l-62,1l-1,-35h-33v-30h32l2,-32"/><path d="M154.72374,369.45327l35,1"/><path d="M185.72374,435.45327l38,-1"/><path d="M96.72374,394.45327l-1,-22l-33,-1l-3,-33l64,-1"/><path d="M187.45558,179.45327v-64l-32,-2v35l-65,1v-35l37,3"/><path d="M-103.54442,86.45326v-34l34,-1"/><path d="M127.45558,54.10101l-64,2v-34h-36l-1,-33l-64,-1l1,-30l-33,1l-1,31l-66,-1v-66"/><path d="M-37.54442,55.10101l-1,-34l-29,2l-2,-36"/><path d="M27.45558,22.10101l-36,2"/><path d="M91.45558,114.45326l-64,1v-60l-97,-4l1,65h-69v-95.35225l37,2l-2,-65l1,-29l101,1l60,-1l1,60l-35,1"/><path d="M28.45558,-40.89899l-34,-1l-3,-28"/><path d="M55.45558,-71.89899l37,1l-1,28l36,-1v32l-36,-1l-3,31h40l-1,66l-69,1v32"/><path d="M124.45558,-43.89899h67l-3,-27l129.26816,1l99,-1v29"/><path d="M122.45558,-68.89899l66,-2"/><path d="M189.45558,114.10101l-2,-33l67,2v-29h31.26816l64,1"/><path d="M287.45556,180.10101v-31l-32,-1l-1,-66"/><path d="M225.45557,148.101l-4,-31h30h38"/><path d="M221.45558,-70.89899v60l-66,-2l1,99l-27,-1"/><path d="M156.45558,25.10101l65,-4l2,64"/><path d="M218.45558,52.10101h-31"/><path d="M319.45556,-42.89899h-65"/><path d="M225.45557,-10.89899l62,-2l-2,38"/><path d="M256.45558,21.10101l-1,-30"/><path d="M-70.54442,433.45327l34,-1"/><path d="M-0.54443,340.45327l-35,-3l-1,34h-66l-1,-36"/><path d="M-100.54442,405.45327l-1,-32"/><path d="M-104.54442,303.45327l104,2l-3,35l27,1"/><path d="M-34.54442,336.45327l-39,2"/><path d="M60.72374,403.45327l-67,-1l-64.26816,-2l2,32l-66,1l-1,-97l32,-1l1,-60l-3,-31l-27,1l1,-32l63,-2v-28l34,-2l-4,-98l63,-2"/><path d="M-132.54442,305.45327v-31h29"/><path d="M-68.54442,177.45327l-1,-26l-35,-1v-37"/><path d="M-134.54442,180.45327l1,-30l31,-1"/><path d="M-104.54442,177.45327l1,33"/><path d="M27.45558,148.45326l33,-1l-1,34"/><path d="M-36.54442,116.45326l32,-2l-1,35l36,-1l-1,63l-67,-2l2,35l-34,3l-2,-37"/><path d="M253.72374,307.45327l-64,1l2,29h-66v64h32v29l-100,5l-62,-2l-1,-65l30,2v-29h38l-2.26816,-38l-32,1l4,-32l-35,2l-2,-29l-29,-4l-3,32l-34,1"/><path d="M-4.54443,181.45327l32,1"/><path d="M26.45558,209.45327l33,1l1,32l-33,2"/><path d="M63.45558,277.45327h29l1,29l-33,-2"/><path d="M92.45558,278.45327l36,-2l-4,31"/><path d="M125.45558,153.45326v28h-32l3,31l-37,-1"/><path d="M125.45558,181.45327l34,-2v32"/><path d="M183.45558,309.45327l-26,-1l-1,-63l-65,2l4,-34"/><path d="M124.45558,208.45327l3,33"/><path d="M155.45558,272.45327l33,4l-1,-32l33,-1l2,30"/></g></g></svg>