<svg version="1.1" xmlns="http://www.w3.org/2000/svg" xmlns:xlink="http://www.w3.org/1999/xlink" width="656.15315" height="378" viewBox="0,0,656.15315,378"><g transform="translate(8.07658,9)"><g data-paper-data="{&quot;isPaintingLayer&quot;:true}" fill-rule="nonzero" stroke="none" stroke-linecap="butt" stroke-linejoin="miter" stroke-miterlimit="10" stroke-dasharray="" stroke-dashoffset="0" style="mix-blend-mode: normal"><path d="M-8.07657,369v-378h656.15315v378z" fill="#000000" stroke-width="NaN"/><text transform="translate(88.15217,23.19876) scale(0.5,0.5)" font-size="40" xml:space="preserve" fill="#ffffff" fill-rule="nonzero" stroke="none" stroke-width="1" stroke-linecap="butt" stroke-linejoin="miter" stroke-miterlimit="10" stroke-dasharray="" stroke-dashoffset="0" font-family="Sans Serif" font-weight="normal" text-anchor="start" style="mix-blend-mode: normal"><tspan x="0" dy="0">Acacia OS has successfully shut down.</tspan><tspan x="0" dy="46.150000000000006px"> </tspan><tspan x="0" dy="46.150000000000006px">Exit the program by pressing</tspan><tspan x="0" dy="46.150000000000006px"> </tspan><tspan x="0" dy="46.150000000000006px">Relaunch Acacia OS by pressing the Space key.</tspan><tspan x="0" dy="46.150000000000006px"> </tspan><tspan x="0" dy="46.150000000000006px">Reset Acacia OS by pressing</tspan></text><path d="M379.74795,76.70807l-7.4995,-7.4995v-10.68422l7.4995,-7.4995h10.63286l7.55087,7.4995v10.63286l-7.4995,7.55087z" fill="#ec503b" stroke-width="1"/><path d="M385.85988,146.2313v13.36696c0,0.26522 -0.10609,0.53043 -0.31826,0.63652c-1.69739,1.48522 -3.81913,2.22783 -5.99391,2.22783c-2.17478,0 -4.29652,-0.79565 -5.99391,-2.22783c-1.37913,-1.16696 -3.07652,-1.85652 -4.88,-1.85652c-1.64435,0 -3.23565,0.53043 -4.56174,1.5913v8.85826c0,0.53043 -0.42435,0.95478 -0.95478,0.95478c-0.53043,0 -0.95478,-0.42435 -0.95478,-0.95478v-22.59652c0,-0.42435 0.26522,-0.68957 0.53043,-0.8487c1.69739,-1.37913 3.71304,-2.12174 5.83478,-2.12174c2.17478,0 4.34957,0.79565 6.04696,2.22783c1.37913,1.16696 3.07652,1.80348 4.88,1.80348c1.80348,0 3.50087,-0.63652 4.88,-1.80348c0.31826,-0.21217 0.68957,-0.26522 1.00783,-0.10609c0.31826,0.15913 0.47739,0.47739 0.47739,0.8487z" fill="#549a10" stroke-width="1"/></g></g></svg>