<svg version="1.1" xmlns="http://www.w3.org/2000/svg" xmlns:xlink="http://www.w3.org/1999/xlink" width="470.71713" height="324" viewBox="0,0,470.71713,324"><g transform="translate(-4.59537,-4.99968)"><g data-paper-data="{&quot;isPaintingLayer&quot;:true}" fill-rule="nonzero" stroke="none" stroke-linecap="butt" stroke-linejoin="miter" stroke-miterlimit="10" stroke-dasharray="" stroke-dashoffset="0" style="mix-blend-mode: normal"><path d="M19.6875,12.24968c0,4.00406 -3.35786,7.25 -7.5,7.25c-4.14214,0 -7.5,-3.24594 -7.5,-7.25c0,-4.00406 3.35786,-7.25 7.5,-7.25c4.14214,0 7.5,3.24594 7.5,7.25z" fill="#ff0000" stroke-width="0"/><path d="M475.1875,12.24968c0,4.00406 -3.35787,7.25 -7.5,7.25c-4.14213,0 -7.5,-3.24594 -7.5,-7.25c0,-4.00407 3.35787,-7.25 7.5,-7.25c4.14213,0 7.5,3.24593 7.5,7.25z" fill="#ff0000" stroke-width="0"/><path d="M12.3125,31.99968v-27h453.5v27z" fill="#ff0000" stroke-width="0"/><path d="M4.8125,31.99968v-19.5h470.5v19.5z" fill="#ff0000" stroke-width="0"/><text transform="translate(204.28826,24.07552) scale(0.42296,0.42296)" font-size="40" xml:space="preserve" fill="#ffffff" fill-rule="nonzero" stroke="none" stroke-width="1" stroke-linecap="butt" stroke-linejoin="miter" stroke-miterlimit="10" stroke-dasharray="" stroke-dashoffset="0" font-family="Sans Serif" font-weight="normal" text-anchor="start" style="mix-blend-mode: normal"><tspan x="0" dy="0">Translate</tspan></text><path d="M12.3125,328.99968v-3.25h453.5v3.25z" fill="#ff0000" stroke-width="0"/><path d="M475.1875,321.66635c0,4.00406 -3.35787,7.25 -7.5,7.25c-4.14213,0 -5.25,-0.32927 -9,-2.58333c-1.74904,-1.05132 4.71134,1.16281 9.91086,-2.4511c4.73938,-3.2941 3.61051,-10.81551 4.00581,-11.71557c1.64213,3.16667 2.58333,5.49594 2.58333,9.5z" fill="#ff0000" stroke-width="0"/><path d="M472.05064,320.99968v-308.5h3.02373v308.5z" fill="#ff0000" stroke-width="0"/><path d="M4.60808,320.99968v-308.5h3.40885v308.5z" fill="#ff0000" stroke-width="0"/><path d="M7.1787,312.16634c0.3953,0.90005 -0.73356,8.42147 4.00581,11.71557c5.19951,3.61392 11.65989,1.39979 9.91086,2.4511c-3.75,2.25406 -4.85787,2.58333 -9,2.58333c-4.14213,0 -7.5,-3.24594 -7.5,-7.25c0,-4.00406 0.9412,-6.33333 2.58333,-9.5z" data-paper-data="{&quot;index&quot;:null}" fill="#ff0000" stroke-width="0"/></g></g></svg>