<svg version="1.1" xmlns="http://www.w3.org/2000/svg" xmlns:xlink="http://www.w3.org/1999/xlink" width="345.2718" height="215.28036" viewBox="0,0,345.2718,215.28036"><g transform="translate(-154.32888,-72.35987)"><g data-paper-data="{&quot;isPaintingLayer&quot;:true}" fill-rule="nonzero" stroke-linejoin="miter" stroke-miterlimit="10" stroke-dasharray="" stroke-dashoffset="0" style="mix-blend-mode: normal"><path d="M372.95038,180.00005c0,58.06732 -48.38045,105.14018 -108.06075,105.14018c-59.6803,0 -108.06075,-47.07286 -108.06075,-105.14018c0,-58.06732 48.38045,-105.14018 108.06075,-105.14018c59.6803,0 108.06075,47.07287 108.06075,105.14019z" fill="none" stroke="#000000" stroke-width="5" stroke-linecap="butt"/><path d="M265.226,75.60394v14.6028" fill="none" stroke="#000000" stroke-width="5" stroke-linecap="round"/><path d="M357.84289,179.20383l14.60267,-0.06191" fill="none" stroke="#000000" stroke-width="5" stroke-linecap="round"/><path d="M265.11502,285.04319v-14.6028" fill="none" stroke="#000000" stroke-width="5" stroke-linecap="round"/><path d="M157.6735,179.82295l14.60267,-0.06191" fill="none" stroke="#000000" stroke-width="5" stroke-linecap="round"/><path d="M316.83957,88.08818l-7.07059,12.77687" fill="none" stroke="#000000" stroke-width="5" stroke-linecap="round"/><path d="M356.57518,126.19881l-12.28947,7.88737" fill="none" stroke="#000000" stroke-width="5" stroke-linecap="round"/><path d="M356.76984,233.7942l-12.67879,-7.24501" fill="none" stroke="#000000" stroke-width="5" stroke-linecap="round"/><path d="M316.76088,270.68431l-7.35713,-12.61406" fill="none" stroke="#000000" stroke-width="5" stroke-linecap="round"/><path d="M219.54126,103.37127l-7.35713,-12.61406" fill="none" stroke="#000000" stroke-width="5" stroke-linecap="round"/><path d="M173.85741,127.8693l12.67879,7.24501" fill="none" stroke="#000000" stroke-width="5" stroke-linecap="round"/><path d="M173.32192,234.00442l12.28947,-7.88737" fill="none" stroke="#000000" stroke-width="5" stroke-linecap="round"/><path d="M213.27949,270.87674l7.07059,-12.77687" fill="none" stroke="#000000" stroke-width="5" stroke-linecap="round"/><path d="M372.95038,180.00005c0,58.06732 -48.38045,105.14018 -108.06075,105.14018c-59.6803,0 -108.06075,-47.07286 -108.06075,-105.14018c0,-58.06732 48.38045,-105.14018 108.06075,-105.14018c59.6803,0 108.06075,47.07287 108.06075,105.14019z" fill="none" stroke="#000000" stroke-width="5" stroke-linecap="butt"/><path d="M265.226,90.20675v-14.6028" fill="none" stroke="#000000" stroke-width="5" stroke-linecap="round"/><path d="M372.44556,179.14189l-14.60267,0.06192" fill="none" stroke="#000000" stroke-width="5" stroke-linecap="round"/><path d="M265.11502,285.04319v-14.6028" fill="none" stroke="#000000" stroke-width="5" stroke-linecap="round"/><path d="M157.6735,179.823l14.60267,-0.06191" fill="none" stroke="#000000" stroke-width="5" stroke-linecap="round"/><path d="M309.76898,100.86505l7.07059,-12.77687" fill="none" stroke="#000000" stroke-width="5" stroke-linecap="round"/><path d="M344.28571,134.08619l12.28947,-7.88737" fill="none" stroke="#000000" stroke-width="5" stroke-linecap="round"/><path d="M356.76984,233.7942l-12.67879,-7.24501" fill="none" stroke="#000000" stroke-width="5" stroke-linecap="round"/><path d="M309.40375,258.07027l7.35713,12.61406" fill="none" stroke="#000000" stroke-width="5" stroke-linecap="round"/><path d="M212.18413,90.75721l7.35713,12.61406" fill="none" stroke="#000000" stroke-width="5" stroke-linecap="round"/><path d="M186.5362,135.11431l-12.67879,-7.24501" fill="none" stroke="#000000" stroke-width="5" stroke-linecap="round"/><path d="M173.32192,234.00444l12.28947,-7.88737" fill="none" stroke="#000000" stroke-width="5" stroke-linecap="round"/><path d="M220.35008,258.09989l-7.07059,12.77687" fill="none" stroke="#000000" stroke-width="5" stroke-linecap="round"/><path d="M372.95038,180.00005c0,58.06732 -48.38045,105.14018 -108.06075,105.14018c-59.6803,0 -108.06075,-47.07286 -108.06075,-105.14018c0,-58.06732 48.38045,-105.14018 108.06075,-105.14018c59.6803,0 108.06075,47.07287 108.06075,105.14019z" fill="none" stroke="#000000" stroke-width="5" stroke-linecap="butt"/><path d="M265.226,90.20675v-14.6028" fill="none" stroke="#000000" stroke-width="5" stroke-linecap="round"/><path d="M372.44556,179.14189l-14.60267,0.06192" fill="none" stroke="#000000" stroke-width="5" stroke-linecap="round"/><path d="M265.11502,285.04319v-14.6028" fill="none" stroke="#000000" stroke-width="5" stroke-linecap="round"/><path d="M157.6735,179.823l14.60267,-0.06191" fill="none" stroke="#000000" stroke-width="5" stroke-linecap="round"/><path d="M309.76898,100.86505l7.07059,-12.77687" fill="none" stroke="#000000" stroke-width="5" stroke-linecap="round"/><path d="M344.28571,134.08619l12.28947,-7.88737" fill="none" stroke="#000000" stroke-width="5" stroke-linecap="round"/><path d="M356.76984,233.7942l-12.67879,-7.24501" fill="none" stroke="#000000" stroke-width="5" stroke-linecap="round"/><path d="M309.40375,258.07027l7.35713,12.61406" fill="none" stroke="#000000" stroke-width="5" stroke-linecap="round"/><path d="M212.18413,90.75721l7.35713,12.61406" fill="none" stroke="#000000" stroke-width="5" stroke-linecap="round"/><path d="M186.5362,135.11431l-12.67879,-7.24501" fill="none" stroke="#000000" stroke-width="5" stroke-linecap="round"/><path d="M173.32192,234.00444l12.28947,-7.88737" fill="none" stroke="#000000" stroke-width="5" stroke-linecap="round"/><path d="M220.35008,258.09989l-7.07059,12.77687" fill="none" stroke="#000000" stroke-width="5" stroke-linecap="round"/><text transform="translate(392.8663,165.37676) scale(0.5,0.5)" font-size="40" xml:space="preserve" fill="#000000" fill-rule="nonzero" stroke="none" stroke-width="1" stroke-linecap="butt" stroke-linejoin="miter" stroke-miterlimit="10" stroke-dasharray="" stroke-dashoffset="0" font-family="Sans Serif" font-weight="normal" text-anchor="start" style="mix-blend-mode: normal"><tspan x="0" dy="0">Stopwatch:</tspan></text></g></g></svg>