<svg version="1.1" xmlns="http://www.w3.org/2000/svg" xmlns:xlink="http://www.w3.org/1999/xlink" width="81.27675" height="24" viewBox="0,0,81.27675,24"><g transform="translate(-330.28147,-66.80464)"><g data-paper-data="{&quot;isPaintingLayer&quot;:true}" fill-rule="nonzero" stroke="none" stroke-linecap="butt" stroke-linejoin="miter" stroke-miterlimit="10" stroke-dasharray="" stroke-dashoffset="0" style="mix-blend-mode: normal"><path d="M341.78148,72.80464c0,3.31371 -2.57436,6 -5.75,6c-3.17564,0 -5.75,-2.68629 -5.75,-6c0,-3.31371 2.57436,-6 5.75,-6c3.17564,0 5.75,2.68629 5.75,6z" fill="#ff0000" stroke-width="0"/><path d="M335.96849,90.80464v-24h70.33973v24z" fill="#ff0000" stroke-width="0"/><path d="M411.55823,72.80464c0,3.31371 -2.57436,6 -5.75,6c-3.17564,0 -5.75,-2.68629 -5.75,-6c0,-3.31371 2.57436,-6 5.75,-6c3.17564,0 5.75,2.68629 5.75,6z" fill="#ff0000" stroke-width="0"/><path d="M341.78148,84.80464c0,3.31371 -2.57436,6 -5.75,6c-3.17564,0 -5.75,-2.68629 -5.75,-6c0,-3.31371 2.57436,-6 5.75,-6c3.17564,0 5.75,2.68629 5.75,6z" fill="#ff0000" stroke-width="0"/><path d="M411.463,84.80464c0,3.31371 -2.57436,6 -5.75,6c-3.17564,0 -5.75,-2.68629 -5.75,-6c0,-3.31371 2.57436,-6 5.75,-6c3.17564,0 5.75,2.68629 5.75,6z" fill="#ff0000" stroke-width="0"/><path d="M330.28148,85.30464v-12h81.27675v12z" fill="#ff0000" stroke-width="0"/><text transform="translate(348.30742,84.24944) scale(0.42822,0.42822)" font-size="40" xml:space="preserve" fill="#ffffff" fill-rule="nonzero" stroke="none" stroke-width="1" stroke-linecap="butt" stroke-linejoin="miter" stroke-miterlimit="10" stroke-dasharray="" stroke-dashoffset="0" font-family="&quot;ヒラギノ角ゴ Pro W3&quot;, &quot;Hiragino Kaku Gothic Pro&quot;, Osaka, &quot;メイリオ&quot;, Meiryo, &quot;ＭＳ Ｐゴシック&quot;, &quot;MS PGothic&quot;" font-weight="normal" text-anchor="start" style="mix-blend-mode: normal"><tspan x="0" dy="0">Enable</tspan></text></g></g></svg>