<svg version="1.1" xmlns="http://www.w3.org/2000/svg" xmlns:xlink="http://www.w3.org/1999/xlink" width="35.25" height="34.86046" viewBox="0,0,35.25,34.86046"><g transform="translate(-9.625,-39.88954)"><g data-paper-data="{&quot;isPaintingLayer&quot;:true}" fill-rule="nonzero" stroke="none" stroke-linecap="butt" stroke-linejoin="miter" stroke-miterlimit="10" stroke-dasharray="" stroke-dashoffset="0" style="mix-blend-mode: normal"><path d="M44.875,57.5c0,9.52691 -7.89098,17.25 -17.625,17.25c-9.73402,0 -17.625,-7.72309 -17.625,-17.25c0,-9.52691 7.89098,-17.25 17.625,-17.25c9.73402,0 17.625,7.72309 17.625,17.25z" fill="#ff0000" stroke-width="NaN"/><text transform="translate(19.875,67.12269) scale(0.64078,0.64078)" font-size="40" xml:space="preserve" fill="#ffffff" fill-rule="nonzero" stroke="none" stroke-width="1" stroke-linecap="butt" stroke-linejoin="miter" stroke-miterlimit="10" stroke-dasharray="" stroke-dashoffset="0" font-family="&quot;Microsoft YaHei&quot;, &quot;微软雅黑&quot;, STXihei, &quot;华文细黑&quot;" font-weight="normal" text-anchor="start" style="mix-blend-mode: normal"><tspan x="0" dy="0">S</tspan></text><path d="M31.175,52.31163v-6.81163l4.88167,3.97345v-0.11353z" fill="#ffffff" stroke-width="0"/><path d="M23.685,65.3c0,1.65685 -1.34315,3 -3,3c-1.65685,0 -3,-1.34315 -3,-3c0,-1.65685 1.34315,-3 3,-3c1.65685,0 3,1.34315 3,3z" fill="#ffffff" stroke-width="0"/></g></g></svg>