<svg version="1.1" xmlns="http://www.w3.org/2000/svg" xmlns:xlink="http://www.w3.org/1999/xlink" width="24.17805" height="23.43042" viewBox="0,0,24.17805,23.43042"><g transform="translate(-13.60956,-217.85619)"><g data-paper-data="{&quot;isPaintingLayer&quot;:true}" fill-rule="nonzero" stroke-linecap="butt" stroke-linejoin="miter" stroke-miterlimit="10" stroke-dasharray="" stroke-dashoffset="0" style="mix-blend-mode: normal"><path d="M13.60957,241.28662v-23.43042h24.17805v23.43042z" fill="#ff0000" stroke="none" stroke-width="0"/><path d="M28.18055,237.16667v-7.66667h3.97222v7.66667z" fill="#ff0000" stroke="none" stroke-width="0"/><path d="M22.5288,237.22094v-12.06723h6.41072v12.06723z" fill="#ffffff" stroke="none" stroke-width="0"/><path d="M24.8764,228.17052c0,1.66613 -1.29439,3.01681 -2.89111,3.01681c-1.59671,0 -2.89111,-1.35067 -2.89111,-3.01681c0,-1.66613 1.2944,-3.01681 2.89111,-3.01681c1.59671,0 2.89111,1.35067 2.89111,3.01681z" fill="#ffffff" stroke="none" stroke-width="0"/><path d="M31.11211,228.25271c0,1.66613 -1.2944,3.01681 -2.89111,3.01681c-1.59671,0 -2.89111,-1.35066 -2.89111,-3.01681c0,-1.66613 1.2944,-3.01681 2.89111,-3.01681c1.59671,0 2.89111,1.35067 2.89111,3.01681z" fill="#ffffff" stroke="none" stroke-width="0"/><path d="M24.8764,234.20413c0,1.66613 -1.29439,3.01681 -2.89111,3.01681c-1.59671,0 -2.89111,-1.35067 -2.89111,-3.01681c0,-1.66613 1.2944,-3.01681 2.89111,-3.01681c1.59671,0 2.89111,1.35067 2.89111,3.01681z" fill="#ffffff" stroke="none" stroke-width="0"/><path d="M31.11353,234.20413c0,1.66613 -1.29439,3.01681 -2.89111,3.01681c-1.59671,0 -2.89111,-1.35067 -2.89111,-3.01681c0,-1.66613 1.2944,-3.01681 2.89111,-3.01681c1.59671,0 2.89111,1.35067 2.89111,3.01681z" fill="#ffffff" stroke="none" stroke-width="0"/><path d="M19.09419,234.45553v-6.03362h12.06723v6.03362z" fill="#ffffff" stroke="none" stroke-width="0"/><path d="M22.83578,226.5378v-4.28571h4.57143v4.28571z" fill="none" stroke="#ffffff" stroke-width="1.5"/><text transform="translate(21.26436,235.02962) scale(0.29185,0.29185)" font-size="40" xml:space="preserve" fill="#ff0000" fill-rule="nonzero" stroke="none" stroke-width="1" stroke-linecap="butt" stroke-linejoin="miter" stroke-miterlimit="10" stroke-dasharray="" stroke-dashoffset="0" font-family="Sans Serif" font-weight="normal" text-anchor="start" style="mix-blend-mode: normal"><tspan x="0" dy="0">A</tspan></text></g></g></svg>