<svg version="1.1" xmlns="http://www.w3.org/2000/svg" xmlns:xlink="http://www.w3.org/1999/xlink" width="925.98232" height="524.8573" viewBox="0,0,925.98232,524.8573"><g transform="translate(143.79442,83.14897)"><g data-paper-data="{&quot;isPaintingLayer&quot;:true}" fill-rule="nonzero" stroke-linejoin="miter" stroke-miterlimit="10" stroke-dasharray="" stroke-dashoffset="0" style="mix-blend-mode: normal"><path d="M318.00002,242.30003h-64l-30.27628,2.15325v-31l-35,-1l-1,-33.00001l130.19925,0.29054l35.66667,1" fill="none" stroke="#ffffff" stroke-width="12.5" stroke-linecap="round"/><path d="M420.25635,211.74382l-67.66667,0.33333l0.33333,-63" fill="none" stroke="#ffffff" stroke-width="12.5" stroke-linecap="round"/><path d="M383.92301,115.74381l1.33333,33.33333h-31.33333" fill="none" stroke="#ffffff" stroke-width="12.5" stroke-linecap="round"/><path d="M383.58967,148.41047l67.66667,0.33333l-0.66667,33.33333l-65,0.66667" fill="none" stroke="#ffffff" stroke-width="12.5" stroke-linecap="round"/><path d="M418.25634,211.74381l-0.33333,-29" fill="none" stroke="#ffffff" stroke-width="12.5" stroke-linecap="round"/><path d="M385.25634,211.07716l-1,35" fill="none" stroke="#ffffff" stroke-width="12.5" stroke-linecap="round"/><path d="M615.72375,434.45329l-102,-1v-34h-63l-0.72373,-29.15325l30,-1v-64l34.25631,0.11046v-29.33333l32.66667,-0.66667l1,-32l-33.66667,-0.66667" fill="none" stroke="#ffffff" stroke-width="12.5" stroke-linecap="round"/><path d="M253.00002,276.30001l70,-2l-1,33h64l-2,-30h33l2,62h30" fill="none" stroke="#ffffff" stroke-width="12.5" stroke-linecap="round"/><path d="M325.00002,339.30006l-36,1l-1,-31h32" fill="none" stroke="#ffffff" stroke-width="12.5" stroke-linecap="round"/><path d="M481.92299,212.41051l1.33333,63.66667l-35.33333,0.66667l2.07702,96.5562l-97,-1l-1,-31l34,-1l1,-33" fill="none" stroke="#ffffff" stroke-width="12.5" stroke-linecap="round"/><path d="M539.72372,341.45329l76,-1v29l-67.72372,1.84675l-68,-1" fill="none" stroke="#ffffff" stroke-width="12.5" stroke-linecap="round"/><path d="M771.72375,276.30001l2,-129h-66v-92l36,-1v59l31,2" fill="none" stroke="#ffffff" stroke-width="12.5" stroke-linecap="round"/><path d="M648.72375,-42.89897l-69,1l1,-31l97,2l2,29l28,-1l68,0.199v67l-1,61l-33,-1" fill="none" stroke="#ffffff" stroke-width="12.5" stroke-linecap="round"/><path d="M447.72375,185.30003l36,-2v-64l-36,2l3,-67h99l-1,27l67,3l-1,37" fill="none" stroke="#ffffff" stroke-width="12.5" stroke-linecap="round"/><path d="M415.72375,83.30003l3,33h-34" fill="none" stroke="#ffffff" stroke-width="12.5" stroke-linecap="round"/><path d="M485.72375,53.30003l-3,31l33,-1v62l-3,64" fill="none" stroke="#ffffff" stroke-width="12.5" stroke-linecap="round"/><path d="M543.72372,185.30003l-1,-70l37,3v34l63,-4v-65l61,2" fill="none" stroke="#ffffff" stroke-width="12.5" stroke-linecap="round"/><path d="M643.72375,117.30003h33l-3,65" fill="none" stroke="#ffffff" stroke-width="12.5" stroke-linecap="round"/><path d="M610.72372,179.30003l1,63l33,1l1,33l-33,-2l1,32" fill="none" stroke="#ffffff" stroke-width="12.5" stroke-linecap="round"/><path d="M641.72372,213.30003h34v62l-28,1" fill="none" stroke="#ffffff" stroke-width="12.5" stroke-linecap="round"/><path d="M511.72375,180.30003l35,-1l-3,34l37,-5l-3,-27h65l100,-1l-1,31l-69,1" fill="none" stroke="#ffffff" stroke-width="12.5" stroke-linecap="round"/><path d="M767.72375,208.30003l-30,1" fill="none" stroke="#ffffff" stroke-width="12.5" stroke-linecap="round"/><path d="M674.72374,25.30003l31,-1v33l-91,-4l-2,33" fill="none" stroke="#ffffff" stroke-width="12.5" stroke-linecap="round"/><path d="M579.72372,57.30003v-38l36,-2v34" fill="none" stroke="#ffffff" stroke-width="12.5" stroke-linecap="round"/><path d="M614.72372,19.30001l32,3l-2,-33h67l31,1l-1,31h27" fill="none" stroke="#ffffff" stroke-width="12.5" stroke-linecap="round"/><path d="M772.72375,-71.89897l-101,-3" fill="none" stroke="#ffffff" stroke-width="12.5" stroke-linecap="round"/><path d="M514.72372,53.10103l-3,-68l103,3l-1,-30" fill="none" stroke="#ffffff" stroke-width="12.5" stroke-linecap="round"/><path d="M547.72372,26.10103v-39" fill="none" stroke="#ffffff" stroke-width="12.5" stroke-linecap="round"/><path d="M577.72372,-71.89897l-98,-1l5,94l-100,-1l2,-62h63l-1,-33" fill="none" stroke="#ffffff" stroke-width="12.5" stroke-linecap="round"/><path d="M509.72375,-14.89897l2,-28h40" fill="none" stroke="#ffffff" stroke-width="12.5" stroke-linecap="round"/><path d="M414.72375,-10.89897l35,-2l-1,34" fill="none" stroke="#ffffff" stroke-width="12.5" stroke-linecap="round"/><path d="M451.72375,59.10103l-70,-3l3,-37" fill="none" stroke="#ffffff" stroke-width="12.5" stroke-linecap="round"/><path d="M515.58967,245.41051l-0.33333,-34.66667l-64.66667,1.66667l1.33333,31.66667l-67.33333,-0.66667l2,33l-34.66667,0.33333l-1,-33l-31.58408,-0.25315l-1.5015,-160.66066l68.88633,0.27102l1,-29" fill="none" stroke="#ffffff" stroke-width="12.5" stroke-linecap="round"/><path d="M320.72375,113.10103l37,4" fill="none" stroke="#ffffff" stroke-width="12.5" stroke-linecap="round"/><path d="M319.72373,82.10103h-34l-1,-60l35,2v-67h36l-3,-28" fill="none" stroke="#ffffff" stroke-width="12.5" stroke-linecap="round"/><path d="M353.72375,-11.89897v33l-37,5" fill="none" stroke="#ffffff" stroke-width="12.5" stroke-linecap="round"/><path d="M507.72373,341.45329h40l-3,-33l39,2" fill="none" stroke="#ffffff" stroke-width="12.5" stroke-linecap="round"/><path d="M769.72375,303.45329l-27,3l1,35h-63l-1,28l-60,2" fill="none" stroke="#ffffff" stroke-width="12.5" stroke-linecap="round"/><path d="M643.72375,341.45329h35" fill="none" stroke="#ffffff" stroke-width="12.5" stroke-linecap="round"/><path d="M548.92301,244.07716l32.66667,-0.66667l-0.86593,64.88954l130,-2v-62l32,-1l-1,32l31,1l3,94l-34,-1.84675l1,63l-34,2l2,-68h-35" fill="none" stroke="#ffffff" stroke-width="12.5" stroke-linecap="round"/><path d="M772.72375,403.45329l-1,29l-29,1" fill="none" stroke="#ffffff" stroke-width="12.5" stroke-linecap="round"/><path d="M682.72375,432.45329l-68,1l1,-31h92" fill="none" stroke="#ffffff" stroke-width="12.5" stroke-linecap="round"/><path d="M547.72372,433.45329l-3,-29l38,-1" fill="none" stroke="#ffffff" stroke-width="12.5" stroke-linecap="round"/><path d="M487.72375,431.45329h-70l-3,-31l38,1" fill="none" stroke="#ffffff" stroke-width="12.5" stroke-linecap="round"/><path d="M416.72375,430.45329l-131,2l-1,-34l34,2l-2,-28l34,-3l2,31l39,-2" fill="none" stroke="#ffffff" stroke-width="12.5" stroke-linecap="round"/><path d="M285.72373,397.45329l-29,3l-0.72373,-61.15325l-2,-95l-1,-32h67" fill="none" stroke="#ffffff" stroke-width="12.5" stroke-linecap="round"/><path d="M287.72373,340.45329l1,32l-32,-1" fill="none" stroke="#ffffff" stroke-width="12.5" stroke-linecap="round"/><path d="M284.72373,433.45329l-62,1l-1,-35h-33v-30h32l2,-32" fill="none" stroke="#ffffff" stroke-width="12.5" stroke-linecap="round"/><path d="M154.72374,369.45329l35,1" fill="none" stroke="#ffffff" stroke-width="12.5" stroke-linecap="round"/><path d="M185.72374,435.45329l38,-1" fill="none" stroke="#ffffff" stroke-width="12.5" stroke-linecap="round"/><path d="M96.72374,394.45329l-1,-22l-33,-1l-3,-33l64,-1" fill="none" stroke="#ffffff" stroke-width="12.5" stroke-linecap="round"/><path d="M187.45558,179.45329v-64l-32,-2v35l-65,1v-35l37,3" fill="none" stroke="#ffffff" stroke-width="12.5" stroke-linecap="round"/><path d="M-103.54442,86.45328v-34l34,-1" fill="none" stroke="#ffffff" stroke-width="12.5" stroke-linecap="round"/><path d="M127.45558,54.10103l-64,2v-34h-36l-1,-33l-64,-1l1,-30l-33,1l-1,31l-66,-1v-66" fill="none" stroke="#ffffff" stroke-width="12.5" stroke-linecap="round"/><path d="M-37.54442,55.10103l-1,-34l-29,2l-2,-36" fill="none" stroke="#ffffff" stroke-width="12.5" stroke-linecap="round"/><path d="M27.45558,22.10103l-36,2" fill="none" stroke="#ffffff" stroke-width="12.5" stroke-linecap="round"/><path d="M91.45558,114.45328l-64,1v-60l-97,-4l1,65h-69v-95.35225l37,2l-2,-65l1,-29l101,1l60,-1l1,60l-35,1" fill="none" stroke="#ffffff" stroke-width="12.5" stroke-linecap="round"/><path d="M28.45558,-40.89898l-34,-1l-3,-28" fill="none" stroke="#ffffff" stroke-width="12.5" stroke-linecap="round"/><path d="M55.45558,-71.89897l37,1l-1,28l36,-1v32l-36,-1l-3,31h40l-1,66l-69,1v32" fill="none" stroke="#ffffff" stroke-width="12.5" stroke-linecap="round"/><path d="M124.45558,-43.89897h67l-3,-27l129.26816,1l99,-1v29" fill="none" stroke="#ffffff" stroke-width="12.5" stroke-linecap="round"/><path d="M188.45558,-70.89897l-66,2" fill="none" stroke="#ffffff" stroke-width="12.5" stroke-linecap="round"/><path d="M189.45558,114.10103l-2,-33l67,2v-29h31.26816l64,1" fill="none" stroke="#ffffff" stroke-width="12.5" stroke-linecap="round"/><path d="M287.45556,180.10103v-31l-32,-1l-1,-66" fill="none" stroke="#ffffff" stroke-width="12.5" stroke-linecap="round"/><path d="M225.45557,148.10101l-4,-31h30h38" fill="none" stroke="#ffffff" stroke-width="12.5" stroke-linecap="round"/><path d="M221.45558,-70.89897v60l-66,-2l1,99l-27,-1" fill="none" stroke="#ffffff" stroke-width="12.5" stroke-linecap="round"/><path d="M156.45558,25.10103l65,-4l2,64" fill="none" stroke="#ffffff" stroke-width="12.5" stroke-linecap="round"/><path d="M187.45558,52.10103h31" fill="none" stroke="#ffffff" stroke-width="12.5" stroke-linecap="round"/><path d="M254.45556,-42.89897h65" fill="none" stroke="#ffffff" stroke-width="12.5" stroke-linecap="round"/><path d="M225.45557,-10.89897l62,-2l-2,38" fill="none" stroke="#ffffff" stroke-width="12.5" stroke-linecap="round"/><path d="M255.45558,-8.89897l1,30" fill="none" stroke="#ffffff" stroke-width="12.5" stroke-linecap="round"/><path d="M-36.54442,432.45329l-34,1" fill="none" stroke="#ffffff" stroke-width="12.5" stroke-linecap="round"/><path d="M-0.54443,340.45329l-35,-3l-1,34h-66l-1,-36" fill="none" stroke="#ffffff" stroke-width="12.5" stroke-linecap="round"/><path d="M-100.54442,405.45329l-1,-32" fill="none" stroke="#ffffff" stroke-width="12.5" stroke-linecap="round"/><path d="M-104.54442,303.45329l104,2l-3,35l27,1" fill="none" stroke="#ffffff" stroke-width="12.5" stroke-linecap="round"/><path d="M-73.54442,338.45329l39,-2" fill="none" stroke="#ffffff" stroke-width="12.5" stroke-linecap="round"/><path d="M60.72374,403.45329l-67,-1l-64.26816,-2l2,32l-66,1l-1,-97l32,-1l1,-60l-3,-31l-27,1l1,-32l63,-2v-28l34,-2l-4,-98l63,-2" fill="none" stroke="#ffffff" stroke-width="12.5" stroke-linecap="round"/><path d="M-132.54442,305.45329v-31h29" fill="none" stroke="#ffffff" stroke-width="12.5" stroke-linecap="round"/><path d="M-68.54442,177.45329l-1,-26l-35,-1v-37" fill="none" stroke="#ffffff" stroke-width="12.5" stroke-linecap="round"/><path d="M-134.54442,180.45329l1,-30l31,-1" fill="none" stroke="#ffffff" stroke-width="12.5" stroke-linecap="round"/><path d="M-103.54442,210.45329l-1,-33" fill="none" stroke="#ffffff" stroke-width="12.5" stroke-linecap="round"/><path d="M27.45558,148.45327l33,-1l-1,34" fill="none" stroke="#ffffff" stroke-width="12.5" stroke-linecap="round"/><path d="M-36.54442,116.45328l32,-2l-1,35l36,-1l-1,63l-67,-2l2,35l-34,3l-2,-37" fill="none" stroke="#ffffff" stroke-width="12.5" stroke-linecap="round"/><path d="M253.72374,307.45329l-64,1l2,29h-66v64h32v29l-100,5l-62,-2l-1,-65l30,2v-29h38l-2.26816,-38l-32,1l4,-32l-35,2l-2,-29l-29,-4l-3,32l-34,1" fill="none" stroke="#ffffff" stroke-width="12.5" stroke-linecap="round"/><path d="M-4.54443,181.45329l32,1" fill="none" stroke="#ffffff" stroke-width="12.5" stroke-linecap="round"/><path d="M26.45558,209.45329l33,1l1,32l-33,2" fill="none" stroke="#ffffff" stroke-width="12.5" stroke-linecap="round"/><path d="M63.45558,277.45329h29l1,29l-33,-2" fill="none" stroke="#ffffff" stroke-width="12.5" stroke-linecap="round"/><path d="M92.45558,278.45329l36,-2l-4,31" fill="none" stroke="#ffffff" stroke-width="12.5" stroke-linecap="round"/><path d="M125.45558,153.45327v28h-32l3,31l-37,-1" fill="none" stroke="#ffffff" stroke-width="12.5" stroke-linecap="round"/><path d="M125.45558,181.45329l34,-2v32" fill="none" stroke="#ffffff" stroke-width="12.5" stroke-linecap="round"/><path d="M183.45558,309.45329l-26,-1l-1,-63l-65,2l4,-34" fill="none" stroke="#ffffff" stroke-width="12.5" stroke-linecap="round"/><path d="M127.45558,241.45329l-3,-33" fill="none" stroke="#ffffff" stroke-width="12.5" stroke-linecap="round"/><path d="M155.45558,272.45329l33,4l-1,-32l33,-1l2,30" fill="none" stroke="#ffffff" stroke-width="12.5" stroke-linecap="round"/><path d="M-53.16034,353.86327v-30.9h31.90625v30.9z" fill="#f2f2f2" stroke="none" stroke-width="0" stroke-linecap="butt"/><g fill="#cc00ff" stroke="none" stroke-width="0" stroke-linecap="butt"><path d="M271.48967,69.19379v-31.6h32.4v31.6z"/><path d="M661.32301,195.86049v-31.6h32.4v31.6z"/><path d="M43.98968,195.86049v-31.6h32.4v31.6z"/><path d="M498.82301,385.81995v-31.6h32.4v31.6z"/></g><path d="M368.98968,290.86046v-31.6h32.4v31.6z" fill="#3300ff" stroke="none" stroke-width="0" stroke-linecap="butt"/><path d="M628.82301,37.40102v-31.6h32.4v31.6z" fill="#3300ff" stroke="none" stroke-width="0" stroke-linecap="butt"/><path d="M-86.01033,37.40102v-31.6h32.4v31.6z" fill="#3300ff" stroke="none" stroke-width="0" stroke-linecap="butt"/><path d="M141.48967,385.81995v-31.6h32.4v31.6z" fill="#3300ff" stroke="none" stroke-width="0" stroke-linecap="butt"/></g></g></svg>