<svg version="1.1" xmlns="http://www.w3.org/2000/svg" xmlns:xlink="http://www.w3.org/1999/xlink" width="164.16485" height="29.66291" viewBox="0,0,164.16485,29.66291"><g transform="translate(1.93962,1.99758)"><g data-paper-data="{&quot;isPaintingLayer&quot;:true}" fill-rule="nonzero" stroke-linejoin="miter" stroke-miterlimit="10" stroke-dasharray="" stroke-dashoffset="0" style="mix-blend-mode: normal"><path d="M-1.42042,27.57272v-29.48562h163.64565v29.48563z" fill="#000000" stroke="#ffffff" stroke-width="0" stroke-linecap="butt"/><path d="M160.96905,26.41534l-161.65867,-0.3769" fill="none" stroke="#ffffff" stroke-width="2.5" stroke-linecap="round"/><path d="M8.41291,12.5871l6.06019,-8.16667l0.11883,-0.16667l6.65432,8.33333z" fill="#ffffff" stroke="none" stroke-width="0" stroke-linecap="butt"/><path d="M8.41291,21.11835v-8.53125h12.83333v8.53125z" fill="#ffffff" stroke="none" stroke-width="0" stroke-linecap="butt"/><path d="M12.91291,21.5871v-6.83333h4.16667v6.83333z" fill="#000000" stroke="#000000" stroke-width="0" stroke-linecap="butt"/><g fill="#ffffff" stroke="none" stroke-width="0" stroke-linecap="butt"><path d="M55.04846,11.91518c0,4.12811 -4.24632,7.47461 -9.48444,7.47461c-5.23811,0 -9.48444,-3.34649 -9.48444,-7.47461c0,-4.12811 4.24632,-7.47461 9.48444,-7.47461c5.23811,0 9.48444,3.34649 9.48444,7.47461z"/><path d="M47.50032,18.84919l1.23798,-3.12059l3.83203,-1.26961l2.33841,6.77071z"/></g><g stroke="#ffffff" stroke-width="0" stroke-linecap="butt"><path d="M107.79353,9.08004c0,2.58957 -2.14299,4.68882 -4.78651,4.68882c-2.64351,0 -4.7865,-2.09925 -4.7865,-4.68882c0,-2.58957 2.14299,-4.68882 4.7865,-4.68882c2.64351,0 4.78651,2.09926 4.78651,4.68882z" fill="#ffffff"/><path d="M97.69308,7.78535l2.77455,-3.40873l3.40873,2.77455l-2.77455,3.40873z" fill="#000000"/><path d="M101.51024,10.40722l2.46116,-2.91544l12.69072,10.71326l-2.46115,2.91543z" fill="#ffffff"/></g><path d="M155.505,26.07527v-25.48818h5.37226v25.48818z" fill="#ffffff" stroke="#ffffff" stroke-width="2.5" stroke-linecap="butt"/><g fill="#ffffff" stroke="none" stroke-width="0" stroke-linecap="butt"><path d="M81.31848,8.65669c0,2.00842 -1.62815,3.63657 -3.63657,3.63657c-2.00842,0 -3.63657,-1.62815 -3.63657,-3.63657c0,-2.00842 1.62815,-3.63657 3.63657,-3.63657c2.00842,0 3.63657,1.62815 3.63657,3.63657z"/><path d="M81.31848,14.89081c0,2.00842 -1.62815,3.63657 -3.63657,3.63657c-2.00842,0 -3.63657,-1.62815 -3.63657,-3.63657c0,-2.00842 1.62815,-3.63657 3.63657,-3.63657c2.00842,0 3.63657,1.62815 3.63657,3.63657z"/><path d="M74.0714,20.31741v-5.76285h7.23182v5.76285z"/></g><text transform="translate(134.90748,19.75242) scale(0.5,0.5)" font-size="40" xml:space="preserve" fill="#ffffff" fill-rule="nonzero" stroke="none" stroke-width="1" stroke-linecap="butt" stroke-linejoin="miter" stroke-miterlimit="10" stroke-dasharray="" stroke-dashoffset="0" font-family="Sans Serif" font-weight="normal" text-anchor="start" style="mix-blend-mode: normal"><tspan x="0" dy="0">?</tspan></text></g></g></svg>