<svg version="1.1" xmlns="http://www.w3.org/2000/svg" xmlns:xlink="http://www.w3.org/1999/xlink" width="87.23935" height="44.13342" viewBox="0,0,87.23935,44.13342"><g transform="translate(-199.34866,-98.14906)"><g data-paper-data="{&quot;isPaintingLayer&quot;:true}" stroke-width="1" stroke-linecap="butt" stroke-linejoin="miter" stroke-miterlimit="10" stroke-dasharray="" stroke-dashoffset="0" style="mix-blend-mode: normal"><text transform="translate(229.14048,106.31731) scale(0.21782,0.21782)" font-size="40" xml:space="preserve" fill="#ffffff" fill-rule="nonzero" stroke="#000000" stroke-width="1" stroke-linecap="butt" stroke-linejoin="miter" stroke-miterlimit="10" stroke-dasharray="" stroke-dashoffset="0" font-family="Handwriting" font-weight="normal" text-anchor="start" style="mix-blend-mode: normal"><tspan x="0" dy="0">Good Morning,</tspan></text><path d="M224.67102,113.29398c-0.14169,0.21253 -0.37783,0.37783 -0.54313,0.59036c-0.37783,0.4959 -0.37783,0.94457 -0.1653,1.51131c0.47229,1.22795 0.1653,2.6448 -0.8265,3.51854c-0.47229,0.42506 -1.10987,0.68482 -1.72385,0.75566c-0.85011,0.09446 -0.80289,0.09446 -1.51131,0.77928c-0.59036,0.61397 -0.70843,1.653 -1.3224,2.24336c-0.37783,0.37783 -0.9918,1.01541 -2.47951,0.75566c-0.80289,-0.1653 -1.39325,-0.40144 -2.17252,-0.56674c-1.1571,-0.23615 -1.01541,-0.11807 -1.84192,0.56674c-1.10987,0.89734 -2.73926,1.44047 -3.89636,0.42506c-0.61397,-0.54313 -0.92096,-1.20433 -1.39325,-1.84192c-0.70843,-0.96819 -1.51131,-0.89734 -2.59757,-0.96819c-1.22795,-0.07084 -2.05444,-1.1571 -2.05444,-2.43228c-0.02361,-0.8265 0.09446,-1.72385 -0.37783,-2.47951c-0.35421,-0.56674 -0.70843,-0.9918 -1.10987,-1.51131c-1.03903,-1.29879 -0.61397,-2.57396 0.02361,-3.91998c0.47229,-0.9918 -0.68482,-1.4877 -0.42506,-2.45589c0.1653,-0.61397 1.95999,-1.46409 2.07806,-3.06987c0.04723,-0.61397 -0.14169,-2.57396 1.20433,-2.43228c0.40144,0.04723 0.94457,0.07084 1.29879,-0.1653c0.44867,-0.30698 0.44867,-0.44867 0.54313,-0.94457c0.28337,-1.51131 1.22795,-2.29059 2.78649,-1.8183c0.59036,0.18892 1.03903,0.47229 1.653,0.40144c0.63759,-0.07084 0.94457,-0.54313 1.46409,-0.85011c0.56674,-0.35421 1.39325,-0.6612 2.07806,-0.4959c0.6612,0.1653 0.75566,0.68482 1.13349,1.18072c0.77928,1.01541 1.72385,0.14169 2.66842,0.02361c1.1571,-0.14169 2.12529,0.51951 2.36143,1.51131c0.09446,0.37783 0.21253,0.63759 0.47229,0.92096c0.35421,0.37783 0.51951,0.40144 0.9918,0.42506c0.56674,0.02361 1.34602,0.28337 1.74746,0.68482c1.13349,1.18072 0.09446,2.73926 0.23615,4.15612c0.09446,1.06264 0.96819,1.34602 1.55854,2.07806c0.37783,0.44867 0.59036,1.03903 0.61397,1.62939c0.02361,0.63759 -0.14169,1.27518 -0.47229,1.79469z" fill="#df6530" fill-rule="evenodd" stroke="none"/><path d="M223.53753,114.04964c0.18892,0.8265 0.25976,1.72385 -0.25976,2.45589c-0.30698,0.42506 -0.73205,0.40144 -1.03903,0.73205c-0.77928,0.85011 -0.21253,2.07806 -0.92096,3.16432c-0.40144,0.61397 -1.67662,0.70843 -2.43228,0.75566c-0.07084,0 -0.44867,0.07084 -0.4959,0.37783c-0.3306,1.18072 -1.70023,1.36963 -2.85733,1.46409c-0.87373,0.07084 -1.55854,0.59036 -2.45589,0.44867c-0.40144,-0.07084 -0.80289,-0.28337 -1.20433,-0.3306c-0.61397,-0.07084 -0.8265,0.21253 -1.34602,0.28337c-0.77928,0.07084 -1.22795,-0.51951 -1.88915,-0.77928c-0.68482,-0.25976 -1.44047,-0.1653 -2.10167,-0.51951c-0.70843,-0.37783 -1.08626,-1.10987 -1.74746,-1.53493c-0.51951,-0.3306 -0.8265,-0.73205 -1.08626,-1.29879c-0.23615,-0.47229 -0.28337,-0.8265 -0.75566,-1.13349c-0.23615,-0.1653 -0.42506,-0.21253 -0.63759,-0.42506c-0.51951,-0.51951 -1.1571,-0.75566 -1.25156,-2.12529c-0.02361,-0.40144 -0.1653,-0.68482 -0.1653,-1.08626c0,-0.42506 -0.04723,-0.70843 -0.1653,-1.1571c-0.23615,-0.77928 0.11807,-1.53493 0.28337,-2.33782c0.18892,-1.01541 -0.04723,-1.8183 0,-2.85733c0.02361,-0.73205 0.25976,-1.27518 0.77928,-1.79469c0.3306,-0.30698 0.75566,-0.4959 1.01541,-0.89734c0.28337,-0.44867 0.35421,-0.9918 0.56674,-1.46409c0.25976,-0.59036 0.61397,-1.06264 1.22795,-1.34602c0.04723,-0.02361 1.95999,-0.68482 3.42408,-2.12529c0.94457,-0.94457 2.12529,-0.11807 3.35323,-0.07084c1.36963,0.04723 2.50312,-0.56674 3.84913,-0.04723c0.61397,0.23615 1.18072,0.63759 1.79469,0.8265c0.59036,0.18892 0.94457,-0.02361 1.55854,0.11807c1.1571,0.28337 1.67662,2.36143 2.52674,3.37685c0.85011,0.9918 1.9836,1.10987 2.29059,2.47951c0.1653,0.6612 -0.07084,1.29879 0.21253,1.91276c0.23615,0.4959 0.63759,0.87373 0.80289,1.39325c0.35421,1.1571 -1.08626,2.73926 -0.87373,3.54215z" fill="#ea9b1f" fill-rule="evenodd" stroke="none"/><path d="M212.39157,100.9673c1.20433,0 2.57396,0.77928 3.66022,1.18072c1.1571,0.40144 2.1489,0.30698 3.09347,1.06264c0.87373,0.70843 0.77928,1.62939 1.39325,2.59757c0.42506,0.6612 1.58216,1.18072 1.9836,2.03083c0.56674,1.18072 0.3306,2.71565 0.3306,3.89636c0,0.80289 0.3306,2.33782 0.1653,3.09347c-0.40144,1.74746 -2.19613,2.29059 -3.32962,3.58938c-0.92096,1.03903 -1.51131,2.1489 -2.76288,2.73926c-1.36963,0.6612 -2.52674,1.60577 -4.15612,1.60577c-0.87373,0 -2.10167,-1.18072 -2.90456,-1.39325c-1.08626,-0.25976 -3.21155,0.25976 -3.73106,-0.70843c-1.74746,-3.30601 -2.3142,-2.85733 -3.1407,-4.08528c-1.10987,-1.653 -0.73205,-2.8101 -0.73205,-4.95901c0,-1.10987 -0.61397,-2.17252 -0.28337,-3.16432c0.40144,-1.25156 1.51131,-2.29059 2.3142,-3.28239c1.13349,-1.41686 3.23516,-2.00722 4.93539,-2.69203c1.13349,-0.44867 1.8183,-1.51131 3.16432,-1.51131z" fill="#f3bb1b" fill-rule="evenodd" stroke="none"/><path d="M202.96946,111.73543c0,-5.20369 4.21842,-9.42211 9.42211,-9.42211c5.20369,0 9.42211,4.21842 9.42211,9.42211c0,5.20369 -4.21842,9.42211 -9.42211,9.42211c-5.20369,0 -9.42211,-4.21842 -9.42211,-9.42211z" fill="#f9d20d" fill-rule="evenodd" stroke="none"/><text transform="translate(199.47382,139.15361) scale(0.25031,0.25031)" font-size="40" xml:space="preserve" fill="#ffffff" fill-rule="nonzero" stroke="#000000" stroke-width="1" stroke-linecap="butt" stroke-linejoin="miter" stroke-miterlimit="10" stroke-dasharray="" stroke-dashoffset="0" font-family="Sans Serif" font-weight="normal" text-anchor="start" style="mix-blend-mode: normal"><tspan x="0" dy="0">Favourites:</tspan></text><text transform="translate(255.47382,134.48748) scale(0.1207,0.1207)" font-size="40" xml:space="preserve" fill="#ffffff" fill-rule="nonzero" stroke="#000000" stroke-width="1" stroke-linecap="butt" stroke-linejoin="miter" stroke-miterlimit="10" stroke-dasharray="" stroke-dashoffset="0" font-family="Sans Serif" font-weight="normal" text-anchor="start" style="mix-blend-mode: normal"><tspan x="0" dy="0">Right-click an</tspan><tspan x="0" dy="48px">app to pin it.</tspan></text></g></g></svg>