<svg version="1.1" xmlns="http://www.w3.org/2000/svg" xmlns:xlink="http://www.w3.org/1999/xlink" width="81.27675" height="25.8204" viewBox="0,0,81.27675,25.8204"><g transform="translate(-264.28144,-300.8046)"><g data-paper-data="{&quot;isPaintingLayer&quot;:true}" fill-rule="nonzero" stroke="none" stroke-linecap="butt" stroke-linejoin="miter" stroke-miterlimit="10" stroke-dasharray="" stroke-dashoffset="0" style="mix-blend-mode: normal"><path d="M275.78144,306.8046c0,3.31371 -2.57436,6 -5.75,6c-3.17564,0 -5.75,-2.68629 -5.75,-6c0,-3.31371 2.57436,-6 5.75,-6c3.17564,0 5.75,2.68629 5.75,6z" fill="#ff0000" stroke-width="0"/><path d="M269.96846,324.8046v-24h70.33973v24z" fill="#ff0000" stroke-width="0"/><path d="M345.55819,306.8046c0,3.31371 -2.57436,6 -5.75,6c-3.17564,0 -5.75,-2.68629 -5.75,-6c0,-3.31371 2.57436,-6 5.75,-6c3.17564,0 5.75,2.68629 5.75,6z" fill="#ff0000" stroke-width="0"/><path d="M275.78144,318.8046c0,3.31371 -2.57436,6 -5.75,6c-3.17564,0 -5.75,-2.68629 -5.75,-6c0,-3.31371 2.57436,-6 5.75,-6c3.17564,0 5.75,2.68629 5.75,6z" fill="#ff0000" stroke-width="0"/><path d="M345.46295,318.8046c0,3.31371 -2.57436,6 -5.75,6c-3.17564,0 -5.75,-2.68629 -5.75,-6c0,-3.31371 2.57436,-6 5.75,-6c3.17564,0 5.75,2.68629 5.75,6z" fill="#ff0000" stroke-width="0"/><path d="M264.28144,319.3046v-12h81.27675v12z" fill="#ff0000" stroke-width="0"/><text transform="translate(266.14072,319.875) scale(0.5,0.5)" font-size="40" xml:space="preserve" fill="#ffffff" fill-rule="nonzero" stroke="none" stroke-width="1" stroke-linecap="butt" stroke-linejoin="miter" stroke-miterlimit="10" stroke-dasharray="" stroke-dashoffset="0" font-family="&quot;ヒラギノ角ゴ Pro W3&quot;, &quot;Hiragino Kaku Gothic Pro&quot;, Osaka, &quot;メイリオ&quot;, Meiryo, &quot;ＭＳ Ｐゴシック&quot;, &quot;MS PGothic&quot;" font-weight="normal" text-anchor="start" style="mix-blend-mode: normal"><tspan x="0" dy="0">- Volume</tspan></text></g></g></svg>