<svg version="1.1" xmlns="http://www.w3.org/2000/svg" xmlns:xlink="http://www.w3.org/1999/xlink" width="81.27675" height="35.71536" viewBox="0,0,81.27675,35.71536"><g transform="translate(-349.28144,-294.49217)"><g data-paper-data="{&quot;isPaintingLayer&quot;:true}" fill-rule="nonzero" stroke="none" stroke-linecap="butt" stroke-linejoin="miter" stroke-miterlimit="10" stroke-dasharray="" stroke-dashoffset="0" style="mix-blend-mode: normal"><path d="M360.78144,306.8046c0,3.31371 -2.57436,6 -5.75,6c-3.17564,0 -5.75,-2.68629 -5.75,-6c0,-3.31371 2.57436,-6 5.75,-6c3.17564,0 5.75,2.68629 5.75,6z" fill="#ff0000" stroke-width="0"/><path d="M354.96846,324.8046v-24h70.33973v24z" fill="#ff0000" stroke-width="0"/><path d="M430.55819,306.8046c0,3.31371 -2.57436,6 -5.75,6c-3.17564,0 -5.75,-2.68629 -5.75,-6c0,-3.31371 2.57436,-6 5.75,-6c3.17564,0 5.75,2.68629 5.75,6z" fill="#ff0000" stroke-width="0"/><path d="M360.78144,318.8046c0,3.31371 -2.57436,6 -5.75,6c-3.17564,0 -5.75,-2.68629 -5.75,-6c0,-3.31371 2.57436,-6 5.75,-6c3.17564,0 5.75,2.68629 5.75,6z" fill="#ff0000" stroke-width="0"/><path d="M430.46295,318.8046c0,3.31371 -2.57436,6 -5.75,6c-3.17564,0 -5.75,-2.68629 -5.75,-6c0,-3.31371 2.57436,-6 5.75,-6c3.17564,0 5.75,2.68629 5.75,6z" fill="#ff0000" stroke-width="0"/><path d="M349.28144,319.3046v-12h81.27675v12z" fill="#ff0000" stroke-width="0"/><text transform="translate(372.51572,319.875) scale(0.5,0.5)" font-size="40" xml:space="preserve" fill="#ffffff" fill-rule="nonzero" stroke="none" stroke-width="1" stroke-linecap="butt" stroke-linejoin="miter" stroke-miterlimit="10" stroke-dasharray="" stroke-dashoffset="0" font-family="&quot;ヒラギノ角ゴ Pro W3&quot;, &quot;Hiragino Kaku Gothic Pro&quot;, Osaka, &quot;メイリオ&quot;, Meiryo, &quot;ＭＳ Ｐゴシック&quot;, &quot;MS PGothic&quot;" font-weight="normal" text-anchor="start" style="mix-blend-mode: normal"><tspan x="0" dy="0">Mute</tspan></text><text transform="translate(352.60732,320.16259) scale(0.74407,0.74407)" font-size="40" xml:space="preserve" fill="#ffffff" fill-rule="nonzero" stroke="none" stroke-width="1" stroke-linecap="butt" stroke-linejoin="miter" stroke-miterlimit="10" stroke-dasharray="" stroke-dashoffset="0" font-family="&quot;ヒラギノ角ゴ Pro W3&quot;, &quot;Hiragino Kaku Gothic Pro&quot;, Osaka, &quot;メイリオ&quot;, Meiryo, &quot;ＭＳ Ｐゴシック&quot;, &quot;MS PGothic&quot;" font-weight="normal" text-anchor="start" style="mix-blend-mode: normal"><tspan x="0" dy="0">x</tspan></text></g></g></svg>