<svg version="1.1" xmlns="http://www.w3.org/2000/svg" xmlns:xlink="http://www.w3.org/1999/xlink" width="81.27675" height="30" viewBox="0,0,81.27675,30"><g transform="translate(-388.28144,-57.58797)"><g data-paper-data="{&quot;isPaintingLayer&quot;:true}" fill-rule="nonzero" stroke="none" stroke-linecap="butt" stroke-linejoin="miter" stroke-miterlimit="10" stroke-dasharray="" stroke-dashoffset="0" style="mix-blend-mode: normal"><path d="M399.78144,67.8046c0,3.31371 -2.57436,6 -5.75,6c-3.17564,0 -5.75,-2.68629 -5.75,-6c0,-3.31371 2.57436,-6 5.75,-6c3.17564,0 5.75,2.68629 5.75,6z" fill="#ff0000" stroke-width="0"/><path d="M393.96846,85.8046v-24h70.33973v24z" fill="#ff0000" stroke-width="0"/><path d="M469.55819,67.8046c0,3.31371 -2.57436,6 -5.75,6c-3.17564,0 -5.75,-2.68629 -5.75,-6c0,-3.31371 2.57436,-6 5.75,-6c3.17564,0 5.75,2.68629 5.75,6z" fill="#ff0000" stroke-width="0"/><path d="M399.78144,79.8046c0,3.31371 -2.57436,6 -5.75,6c-3.17564,0 -5.75,-2.68629 -5.75,-6c0,-3.31371 2.57436,-6 5.75,-6c3.17564,0 5.75,2.68629 5.75,6z" fill="#ff0000" stroke-width="0"/><path d="M469.46295,79.8046c0,3.31371 -2.57436,6 -5.75,6c-3.17564,0 -5.75,-2.68629 -5.75,-6c0,-3.31371 2.57436,-6 5.75,-6c3.17564,0 5.75,2.68629 5.75,6z" fill="#ff0000" stroke-width="0"/><path d="M388.28144,80.3046v-12h81.27675v12z" fill="#ff0000" stroke-width="0"/><text transform="translate(391.27187,79.40047) scale(0.625,0.625)" font-size="40" xml:space="preserve" fill="#ffffff" fill-rule="nonzero" stroke="none" stroke-width="1" stroke-linecap="butt" stroke-linejoin="miter" stroke-miterlimit="10" stroke-dasharray="" stroke-dashoffset="0" font-family="&quot;ヒラギノ角ゴ Pro W3&quot;, &quot;Hiragino Kaku Gothic Pro&quot;, Osaka, &quot;メイリオ&quot;, Meiryo, &quot;ＭＳ Ｐゴシック&quot;, &quot;MS PGothic&quot;" font-weight="normal" text-anchor="start" style="mix-blend-mode: normal"><tspan x="0" dy="0">x</tspan></text><text transform="translate(407.64072,80.5) scale(0.5,0.5)" font-size="40" xml:space="preserve" fill="#ffffff" fill-rule="nonzero" stroke="none" stroke-width="1" stroke-linecap="butt" stroke-linejoin="miter" stroke-miterlimit="10" stroke-dasharray="" stroke-dashoffset="0" font-family="&quot;ヒラギノ角ゴ Pro W3&quot;, &quot;Hiragino Kaku Gothic Pro&quot;, Osaka, &quot;メイリオ&quot;, Meiryo, &quot;ＭＳ Ｐゴシック&quot;, &quot;MS PGothic&quot;" font-weight="normal" text-anchor="start" style="mix-blend-mode: normal"><tspan x="0" dy="0">Delete</tspan></text></g></g></svg>