<svg version="1.1" xmlns="http://www.w3.org/2000/svg" xmlns:xlink="http://www.w3.org/1999/xlink" width="24.17805" height="23.43042" viewBox="0,0,24.17805,23.43042"><g transform="translate(-13.60956,-154.1062)"><g data-paper-data="{&quot;isPaintingLayer&quot;:true}" fill-rule="nonzero" stroke-linejoin="miter" stroke-miterlimit="10" stroke-dasharray="" stroke-dashoffset="0" style="mix-blend-mode: normal"><path d="M13.60957,177.53662v-23.43042h24.17805v23.43042z" fill="#ff0000" stroke="none" stroke-width="0" stroke-linecap="butt"/><path d="M25.89162,158.0016l-0.23472,15.49149" fill="none" stroke="#ffffff" stroke-width="2.5" stroke-linecap="round"/><path d="M29.51369,162.89117c-0.62239,0.62239 -1.24479,0 -1.24479,0l0.08793,0.02405c-2.29524,-1.14762 -3.47877,-2.41245 -3.85768,-5.02858c0,0 -0.12448,-0.87135 0.74687,-0.99583c0.87135,-0.12448 0.99583,0.74687 0.99583,0.74687c0.28789,2.04717 1.12044,2.81209 2.90225,3.70299l0.36959,0.30571c0,0 0.62239,0.62239 0,1.24479z" fill="#ffffff" stroke="none" stroke-width="0.5" stroke-linecap="butt"/><path d="M27.76938,172.04727c0,1.55558 -1.36614,2.81663 -3.05135,2.81663c-1.68521,0 -3.05135,-1.26105 -3.05135,-2.81663c0,-1.55558 1.36614,-2.81663 3.05135,-2.81663c1.68521,0 3.05135,1.26105 3.05135,2.81663z" fill="#ffffff" stroke="none" stroke-width="0" stroke-linecap="butt"/><path d="M26.84722,174.83335v-7.66667h3.97222v7.66667z" fill="#ff0000" stroke="none" stroke-width="0" stroke-linecap="butt"/></g></g></svg>